HIERARCHY
ROOT Hips
{
	OFFSET 0.00 0.00 0.00
	CHANNELS 6 Xposition Yposition Zposition Yrotation Xrotation Zrotation
	JOINT Spine
	{
		OFFSET	0.0000	9.2263	1.5771
		CHANNELS 3 Xrotation Yrotation Zrotation
		JOINT Spine1
		{
			OFFSET	0.0000	16.2540	-0.1656
			CHANNELS 3 Xrotation Yrotation Zrotation
			JOINT Spine2
			{
				OFFSET	0.0000	13.6396	-1.2923
				CHANNELS 3 Xrotation Yrotation Zrotation
				JOINT Neck
				{
					OFFSET	0.0000	13.8774	-4.3542
					CHANNELS 3 Xrotation Yrotation Zrotation
					JOINT Neck1
					{
						OFFSET	0.0000	4.3400	0.9269
						CHANNELS 3 Xrotation Yrotation Zrotation
						JOINT Head
						{
							OFFSET	0.0000	4.0266	0.8585
							CHANNELS 3 Xrotation Yrotation Zrotation
							End Site
							{
								OFFSET 0.0000 23.0297 0.1231
							}
						}
					}
				}
				JOINT LeftShoulder
				{
					OFFSET	6.1442	10.1870	-3.7932
					CHANNELS 3 Zrotation Xrotation Yrotation
					JOINT LeftArm
					{
						OFFSET	12.3191	-1.1130	-1.7935
						CHANNELS 3 Zrotation Xrotation Yrotation
						JOINT LeftForeArm
						{
							OFFSET	27.6870	0.0000	0.0000
							CHANNELS 3 Xrotation Zrotation Yrotation
							JOINT LeftHand
							{
								OFFSET	27.8738	0.0000	0.0000
								CHANNELS 3 Zrotation Yrotation Xrotation
								End Site
								{
									OFFSET	10.0000	0.0000	0.0000
								}
							}
						}
					}
				}
				JOINT RightShoulder
				{
					OFFSET	-6.1402	10.1870	-3.7932
					CHANNELS 3 Zrotation Xrotation Yrotation
					JOINT RightArm
					{
						OFFSET	-12.3231	-1.1130	-1.7935
						CHANNELS 3 Zrotation Xrotation Yrotation
						JOINT RightForeArm
						{
							OFFSET	-27.6870	0.0000	0.0000
							CHANNELS 3 Xrotation Zrotation Yrotation
							JOINT RightHand
							{
								OFFSET	-27.8738	0.0000	0.0000
								CHANNELS 3 Zrotation Yrotation Xrotation
								End Site
								{
									OFFSET	-10.0000	0.0000	0.0000
								}
							}
						}
					}
				}
			}
		}
	}
	JOINT LeftUpLeg
	{
		OFFSET	9.6338	-3.2733	0.0000
		CHANNELS 3 Xrotation Yrotation Zrotation
		JOINT LeftLeg
		{
			OFFSET	0.0000	-41.7300	-1.7300
			CHANNELS 3 Xrotation Yrotation Zrotation
			JOINT LeftFoot
			{
				OFFSET	0.0126	-39.1900	-0.8477
				CHANNELS 3 Xrotation Yrotation Zrotation
				JOINT LeftToeBase
				{
					OFFSET	-0.1833	-12.1931	8.2823
					CHANNELS 3 Xrotation Yrotation Zrotation
					End Site
					{
						OFFSET 0.0000 0.0000 10.1681
					}
				}
			}
		}
	}
	JOINT RightUpLeg
	{
		OFFSET	-9.6338	-3.2733	0.0000
		CHANNELS 3 Xrotation Yrotation Zrotation
		JOINT RightLeg
		{
			OFFSET	0.0000	-41.7300	-1.7300
			CHANNELS 3 Xrotation Yrotation Zrotation
			JOINT RightFoot
			{
				OFFSET	0.0126	-39.1900	-0.8477
				CHANNELS 3 Xrotation Yrotation Zrotation
				JOINT RightToeBase
				{
					OFFSET	-0.1833	-12.1931	8.2823
					CHANNELS 3 Xrotation Yrotation Zrotation
					End Site
					{
						OFFSET 0.0032 0.0000 10.1681
					}
				}
			}
		}
	}
}
MOTION
Frames: 13
Frame Time: 0.0333333
0.1553	93.7803	-0.3277	-2.3657	-5.5858	-2.9911	2.5456	1.823	-2.1559	4.3645	0.2452	0.834	4.3609	0.2675	0.8452	4.2441	-0.2196	-3.9448	0	0	0	2.0025	-3.1182	-5.0679	-2.3801	0.7194	-1.1786	-33.5557	3.6701	-17.3129	0	0	-74.1596	-17.9445	-15.586	-58.7791																																														-1.8948	0.0264	-1.7135	55.1327	26.8872	16.8922	0	0	57.0882	21.0731	0.6394	-36.8216																																														-11.6264	12.6545	5.7811	31.7617	10.3805	4.808	-12.7385	24.9205	-7.0168	-4.175	0	0	-10.7018	-6.4044	-4.1183	22.6537	-10.0727	-2.667	-3.394	-11.0467	8.9188	-4.3589	0	0
-0.396	93.818	-0.3775	-1.9224	-5.8389	-3.003	2.789	1.8574	-1.9561	4.5664	0.2588	1.0561	4.5621	0.2817	1.0679	4.1065	-0.0739	-4.0846	0	0	0	1.598	-1.1108	-6.1219	-2.2146	0.7411	-1.3811	-25.6227	12.4107	-15.728	0	0	-79.832	-18.1099	-11.4465	-52.8253																																														-1.325	0.0569	-0.9515	52.5522	31.2934	18.0945	0	0	52.2448	18.6446	-5.3085	-31.3632																																														-11.4487	12.7423	6.2527	31.5264	10.3987	4.8034	-12.3246	24.1767	-7.3611	-4.2531	0	0	-10.3952	-6.4064	-3.7746	22.8559	-10.0762	-2.5835	-3.6965	-11.5626	8.5811	-4.3603	0	0
-1.0059	93.8638	-0.4057	-1.4377	-6.0848	-3.0557	3.0333	1.913	-1.8298	4.7646	0.2776	1.3687	4.759	0.3023	1.3812	3.9003	0.2313	-4.377	0	0	0	1.3011	1.3551	-6.9894	-1.9553	0.731	-1.4075	-18.4464	21.6781	-16.427	0	0	-83.7325	-17.9756	-7.5944	-45.4318																																														-0.5151	0.1206	0.1181	51.8353	33.563	18.3591	0	0	46.1503	17.6795	-8.8679	-25.6005																																														-11.2757	12.8382	6.8032	31.2421	10.4111	4.819	-11.8695	23.3604	-7.7485	-4.3234	0	0	-10.0186	-6.3544	-3.318	22.9668	-10.0893	-2.5178	-3.9851	-12.1868	8.2184	-4.3544	0	0
-1.6729	93.9156	-0.4249	-0.8409	-6.2616	-3.1476	3.2549	1.9567	-1.8585	4.9458	0.2967	1.7885	4.9388	0.3253	1.8013	3.6066	0.6152	-4.7397	0	0	0	1.1238	3.7786	-7.5975	-1.5295	0.7078	-1.4178	-11.476	30.7162	-20.1772	0	0	-84.5198	-17.9102	-4.3377	-37.8382																																														0.659	0.2404	1.3215	52.615	33.5221	17.4392	0	0	39.542	17.8264	-10.0679	-20.0657																																														-11.1984	12.9232	7.4281	30.9205	10.4046	4.8476	-11.3709	22.4423	-8.1568	-4.3763	0	0	-9.6387	-6.2453	-2.7572	22.9981	-10.1046	-2.4618	-4.2586	-12.9964	7.8317	-4.3449	0	0
-2.3758	93.9687	-0.4402	-0.0906	-6.3255	-3.2313	3.4308	1.9597	-2.0995	5.1036	0.3106	2.2925	5.0949	0.3457	2.305	3.2299	0.9403	-4.9998	0	0	0	1.0102	5.6922	-8.0175	-0.9594	0.6964	-1.5984	-5.4915	38.6869	-26.2348	0	0	-81.7773	-18.2111	-1.6086	-31.7185																																														2.292	0.4347	2.4158	53.8811	31.6723	15.778	0	0	32.9961	18.1083	-9.4865	-16.0662																																														-11.2476	12.9629	8.0442	30.5443	10.3982	4.889	-10.8247	21.409	-8.5632	-4.4144	0	0	-9.3469	-6.137	-2.1974	23.0278	-10.105	-2.3799	-4.5541	-13.9662	7.4194	-4.3369	0	0
-3.0931	94.0206	-0.4466	0.8161	-6.2786	-3.2888	3.563	1.9053	-2.5078	5.2403	0.3154	2.8113	5.2301	0.3587	2.8226	2.7919	1.0836	-4.9829	0	0	0	0.8579	6.8495	-8.3946	-0.4135	0.7139	-2.0078	-3.4669	45.0186	-31.4401	0	0	-75.8109	-19.0889	0.6848	-27.5279																																														4.3632	0.6928	3.1888	54.8287	28.7406	14.0648	0	0	26.8175	17.8621	-7.9527	-14.2874																																														-11.4054	12.9401	8.5998	30.1052	10.3932	4.9569	-10.2387	20.2768	-8.9589	-4.449	0	0	-9.1577	-6.0415	-1.6702	23.0748	-10.0964	-2.2829	-4.8741	-15.0902	7.0005	-4.3313	0	0
-3.8111	94.0733	-0.4363	1.8166	-6.1588	-3.336	3.6893	1.7836	-2.9427	5.358	0.3084	3.2541	5.3473	0.3598	3.2635	2.312	0.9976	-4.6111	0	0	0	0.5691	7.2468	-8.835	-0.1318	0.7556	-2.4685	-9.0716	49.0585	-31.8161	0	0	-66.7246	-20.4763	2.6457	-23.5994																																														6.649	0.95	3.4699	55.4108	25.2706	12.7393	0	0	21.3385	17.0251	-6.3825	-13.9219																																														-11.6219	12.8787	9.113	29.6042	10.389	5.0407	-9.6294	19.0833	-9.3378	-4.4933	0	0	-9.0147	-5.8875	-1.1015	23.0719	-10.1005	-2.2556	-5.1649	-16.3897	6.6218	-4.3235	0	0
-4.5121	94.1247	-0.4062	2.8011	-5.9927	-3.3658	3.8636	1.5731	-3.2551	5.4488	0.2853	3.5449	5.4388	0.3431	3.5516	1.8041	0.7185	-3.9358	0	0	0	0.0962	7.0132	-9.3291	-0.2692	0.7915	-2.6366	-23.1561	49.2264	-26.3498	0	0	-53.8198	-21.4601	4.0283	-17.5995																																														8.7647	1.1049	3.1454	56.1496	21.5096	11.8942	0	0	17.0015	15.8157	-5.6174	-13.3977																																														-11.8527	12.8077	9.584	29.0574	10.3842	5.1137	-9.0198	17.9225	-9.6881	-4.5497	0	0	-8.9111	-5.6274	-0.4674	23.0099	-10.1237	-2.3613	-5.402	-17.7851	6.3211	-4.3098	0	0
-5.168	94.1639	-0.3645	3.6776	-5.7583	-3.3294	4.1189	1.2361	-3.3633	5.4971	0.2402	3.6442	5.4894	0.3011	3.6473	1.2852	0.3298	-3.0946	0	0	0	-0.5368	6.2863	-9.7409	-0.8253	0.7864	-2.269	-41.8228	43.4039	-18.5331	0	0	-36.9949	-20.0149	3.7711	-10.4197																																														10.3755	1.0883	2.2567	57.5048	17.6397	11.4475	0	0	13.9932	14.4222	-6.0552	-11.8938																																														-12.097	12.7052	9.9253	28.4934	10.3804	5.1876	-8.4238	16.9405	-10.0111	-4.6082	0	0	-8.9658	-5.3395	0.1019	23.0357	-10.1538	-2.5293	-5.6508	-19.0936	6.076	-4.2893	0	0
-5.7588	94.1813	-0.3191	4.3649	-5.4327	-3.2128	4.4481	0.7529	-3.2562	5.4929	0.1705	3.5531	5.4888	0.2311	3.5517	0.7771	-0.0789	-2.2457	0	0	0	-1.2378	5.1592	-9.8536	-1.7075	0.7354	-1.4681	-58.8946	31.2586	-12.6079	0	0	-19.697	-14.0319	1.4945	-3.5014																																														11.3651	0.9232	1.0607	59.4085	14.1811	11.2372	0	0	12.1356	13.0544	-7.3346	-10.0553																																														-12.3762	12.5481	10.091	27.963	10.3806	5.2924	-7.8607	16.2597	-10.3286	-4.661	0	0	-9.2694	-5.1315	0.4816	23.275	-10.1675	-2.6232	-5.9886	-20.1185	5.8202	-4.2597	0	0
-6.2873	94.1808	-0.2589	4.7573	-5.0654	-3.0989	4.8099	0.1694	-2.9524	5.4403	0.0841	3.2993	5.4401	0.1405	3.293	0.3119	-0.4342	-1.5278	0	0	0	-1.8612	3.708	-9.4603	-2.7869	0.6726	-0.6222	-70.3947	16.0728	-8.9052	0	0	-8.765	-3.6588	-0.781	-1.6717																																														11.7616	0.7061	-0.0731	61.4595	11.8962	10.9954	0	0	11.2109	12.0765	-8.5348	-9.1694																																														-12.6721	12.3997	10.2226	27.5371	10.3828	5.4034	-7.3803	15.8972	-10.6584	-4.7044	0	0	-9.7051	-4.9851	0.7616	23.61	-10.1706	-2.6155	-6.3735	-20.7696	5.5198	-4.2162	0	0
-6.7553	94.1785	-0.1605	4.7807	-4.7539	-3.0632	5.1436	-0.3942	-2.4876	5.3552	-0.0011	2.9165	5.3579	0.048	2.906	-0.0505	-0.6875	-1.0445	0	0	0	-2.2359	2.0485	-8.4788	-3.8815	0.6356	-0.0606	-76.3308	2.975	-4.8471	0	0	-8.192	7.4899	0.3092	-7.5918																																														11.559	0.533	-0.8429	63.4984	11.0523	10.4276	0	0	11.0395	11.7912	-8.8149	-9.7681																																														-12.8809	12.3578	10.4726	27.2169	10.3812	5.4564	-7.0179	15.7984	-10.9865	-4.7404	0	0	-10.0523	-4.8248	1.091	23.8223	-10.1665	-2.5849	-6.6999	-21.0652	5.1998	-4.1598	0	0
-7.1439	94.1849	-0.0125	4.4754	-4.5777	-3.05	5.3769	-0.7898	-1.941	5.2593	-0.0638	2.4417	5.2631	-0.0243	2.4289	-0.2275	-0.8226	-0.8455	0	0	0	-2.222	0.3574	-7.0311	-4.7967	0.6257	0.2057	-78.808	-4.9327	0.2102	0	0	-13.5154	13.8456	5.4626	-13.293																																														10.7327	0.4476	-1.1082	65.7065	11.1576	9.3776	0	0	11.3583	12.0876	-7.977	-11.3341																																														-12.8498	12.4367	10.7615	26.9098	10.3752	5.4392	-6.7507	15.9288	-11.2867	-4.7867	0	0	-10.2096	-4.6622	1.4218	23.8956	-10.1662	-2.5933	-6.9521	-21.0144	4.9201	-4.0997	0	0
